<?xml version="1.0" encoding="utf-8"?>
<!-- Generator: Adobe Illustrator 23.0.1, SVG Export Plug-In . SVG Version: 6.00 Build 0)  -->
<svg version="1.1" id="Calque_1" xmlns="http://www.w3.org/2000/svg" xmlns:xlink="http://www.w3.org/1999/xlink" x="0px" y="0px"
	 viewBox="0 0 258.35 258.35" style="enable-background:new 0 0 258.35 258.35;" xml:space="preserve">
<style type="text/css">
	.st0{clip-path:url(#SVGID_2_);fill:#F97FB5;}
	.st1{clip-path:url(#SVGID_4_);enable-background:new    ;}
	.st2{clip-path:url(#SVGID_6_);}
	.st3{clip-path:url(#SVGID_8_);}
	.st4{clip-path:url(#SVGID_10_);fill:#F97FB5;}
</style>
<g>
	<defs>
		<path id="SVGID_1_" d="M95.28,30.84c16.1,0,31.57,6.81,42.43,18.69c21.38,23.38,19.76,59.8-3.62,81.19
			c-10.63,9.71-24.39,15.06-38.77,15.06c-16.1,0-31.56-6.81-42.42-18.68c-10.36-11.33-15.69-26.01-15-41.35s7.3-29.49,18.62-39.84
			C67.14,36.19,80.9,30.84,95.28,30.84 M95.28,5.18c-20.04,0-40.13,7.19-56.08,21.79C5.31,57.95,2.97,110.54,33.96,144.41
			c16.4,17.94,38.85,27.03,61.37,27.03c20.04,0,40.13-7.2,56.09-21.79c33.88-30.98,36.22-83.57,5.24-117.45
			C140.25,14.28,117.8,5.18,95.28,5.18"/>
	</defs>
	<clipPath id="SVGID_2_">
		<use xlink:href="#SVGID_1_"  style="overflow:visible;"/>
	</clipPath>
	<rect x="-19.72" y="-26.71" class="st0" width="230.04" height="230.04"/>
</g>
<g>
	<defs>
		<rect id="SVGID_3_" x="133.57" y="132" width="113.45" height="119.86"/>
	</defs>
	<clipPath id="SVGID_4_">
		<use xlink:href="#SVGID_3_"  style="overflow:visible;"/>
	</clipPath>
	<g class="st1">
		<g>
			<defs>
				<rect id="SVGID_5_" x="133.33" y="126.34" width="121.16" height="133.92"/>
			</defs>
			<clipPath id="SVGID_6_">
				<use xlink:href="#SVGID_5_"  style="overflow:visible;"/>
			</clipPath>
			<g class="st2">
				<defs>
					<path id="SVGID_7_" d="M241.05,211.57l-38.99-42.63c-5.4-5.9-13.17-8.27-20.5-7.06L154.24,132l-20.67,18.91l27.32,29.87
						c-1.86,7.2-0.18,15.16,5.21,21.05l38.99,42.63c8.48,9.28,22.88,9.92,32.15,1.44l2.38-2.17
						C248.89,235.24,249.53,220.85,241.05,211.57"/>
				</defs>
				<clipPath id="SVGID_8_">
					<use xlink:href="#SVGID_7_"  style="overflow:visible;"/>
				</clipPath>
				<g class="st3">
					<defs>
						<rect id="SVGID_9_" x="133.33" y="126.34" width="114.79" height="127.54"/>
					</defs>
					<clipPath id="SVGID_10_">
						<use xlink:href="#SVGID_9_"  style="overflow:visible;"/>
					</clipPath>
					<rect x="101.68" y="100.11" class="st4" width="177.22" height="183.63"/>
				</g>
			</g>
		</g>
	</g>
</g>
</svg>
